<!-- Generated by IcoMoon.io -->
<svg version="1.1" xmlns="http://www.w3.org/2000/svg" width="44" height="44" viewBox="0 0 44 44">
<title>patch</title>
<path d="M3.81 29.492c-1.611 1.611-1.611 4.223 0 5.834l4.862 4.861c1.61 1.611 4.221 1.611 5.833 0l6.806-6.805-10.693-10.695-6.808 6.805zM11.59 21.715l10.695 10.695 8.749-8.75-10.693-10.695-8.751 8.751zM16.5 23.375h-1.375v-1.375h1.375v1.375zM19.25 26.125h-1.375v-1.375h1.375v1.375zM19.25 23.375h-1.375v-1.375h1.375v1.375zM19.25 20.625h-1.375v-1.375h1.375v1.375zM26.125 22h1.375v1.375h-1.375v-1.375zM23.375 19.25h1.375v1.375h-1.375v-1.375zM23.375 22h1.375v1.375h-1.375v-1.375zM23.375 24.75h1.375v1.375h-1.375v-1.375zM20.625 16.5h1.375v1.375h-1.375v-1.375zM20.625 19.25h1.375v1.375h-1.375v-1.375zM20.625 22h1.375v1.375h-1.375v-1.375zM20.625 24.75h1.375v1.375h-1.375v-1.375zM20.625 27.5h1.375v1.375h-1.375v-1.375zM38.815 10.049l-4.862-4.861c-1.611-1.611-4.223-1.611-5.834 0l-6.806 6.805 10.693 10.695 6.808-6.806c1.61-1.61 1.61-4.223 0.001-5.833z"></path>
</svg>
